<svg xmlns="http://www.w3.org/2000/svg" xmlns:xlink="http://www.w3.org/1999/xlink" width="500" zoomAndPan="magnify" viewBox="0 0 375 374.999991" height="500" preserveAspectRatio="xMidYMid meet" version="1.0"><defs><clipPath id="66e9bfeb54"><path d="M 48 122 L 258 122 L 258 332 L 48 332 Z M 48 122 " clip-rule="nonzero"/></clipPath><clipPath id="739ed86940"><path d="M 153.449219 374.773438 L 21.398438 242.722656 L 169.359375 94.757812 L 301.410156 226.8125 Z M 153.449219 374.773438 " clip-rule="nonzero"/></clipPath><clipPath id="3703fb8d3b"><path d="M 153.449219 374.773438 L 21.398438 242.722656 L 169.359375 94.757812 L 301.410156 226.8125 Z M 153.449219 374.773438 " clip-rule="nonzero"/></clipPath><clipPath id="cd580d051f"><path d="M 109 26 L 319 26 L 319 236 L 109 236 Z M 109 26 " clip-rule="nonzero"/></clipPath><clipPath id="744f08e4f5"><path d="M 207.410156 -16.84375 L 344.992188 109.433594 L 203.5 263.59375 L 65.914062 137.316406 Z M 207.410156 -16.84375 " clip-rule="nonzero"/></clipPath><clipPath id="d3e5275f1a"><path d="M 207.410156 -16.84375 L 344.992188 109.433594 L 203.5 263.59375 L 65.914062 137.316406 Z M 207.410156 -16.84375 " clip-rule="nonzero"/></clipPath></defs><g clip-path="url(#66e9bfeb54)"><g clip-path="url(#739ed86940)"><g clip-path="url(#3703fb8d3b)"><path fill="orangered" d="M 227.328125 152.976562 C 268.109375 193.757812 268.15625 260.066406 227.429688 300.792969 C 186.707031 341.515625 120.394531 341.472656 79.613281 300.691406 C 59.058594 280.132812 47.910156 251.691406 49.027344 222.65625 L 49.332031 214.789062 L 104.414062 216.980469 L 104.117188 224.851562 C 103.578125 238.777344 108.714844 251.878906 118.570312 261.734375 C 137.84375 281.007812 169.175781 281.027344 188.421875 261.785156 C 198.832031 251.375 204.003906 236.953125 202.613281 222.214844 L 218.296875 220.757812 C 220.125 240.179688 213.300781 259.195312 199.566406 272.929688 C 174.183594 298.3125 132.855469 298.28125 107.4375 272.863281 C 96.320312 261.742188 89.757812 247.496094 88.535156 232.113281 L 64.816406 231.167969 C 65.933594 253.03125 75.152344 273.964844 90.746094 289.558594 C 125.378906 324.195312 181.695312 324.234375 216.28125 289.648438 C 250.871094 255.058594 250.832031 198.742188 216.195312 164.105469 C 202.972656 150.882812 186.257812 142.285156 167.863281 139.253906 C 162.933594 138.4375 157.890625 138.042969 152.863281 138.066406 L 152.753906 122.320312 C 158.667969 122.285156 164.605469 122.753906 170.40625 123.714844 C 192.074219 127.285156 211.753906 137.402344 227.328125 152.976562 " fill-opacity="1" fill-rule="nonzero"/></g></g></g><g clip-path="url(#cd580d051f)"><g clip-path="url(#744f08e4f5)"><g clip-path="url(#d3e5275f1a)"><path fill="orange" d="M 143.089844 207.914062 C 100.601562 168.914062 97.71875 102.667969 136.664062 60.234375 C 175.605469 17.804688 241.855469 15.011719 284.347656 54.011719 C 305.761719 73.667969 318.117188 101.609375 318.246094 130.664062 L 318.277344 138.539062 L 263.152344 138.707031 L 263.113281 130.832031 C 263.054688 116.890625 257.363281 104.023438 247.09375 94.597656 C 227.015625 76.167969 195.707031 77.488281 177.304688 97.535156 C 167.347656 108.382812 162.800781 123.015625 164.816406 137.679688 L 149.210938 139.804688 C 146.554688 120.480469 152.558594 101.191406 165.695312 86.878906 C 189.964844 60.433594 231.257812 58.695312 257.738281 83.003906 C 269.324219 93.636719 276.488281 107.589844 278.371094 122.910156 L 302.105469 122.835938 C 300.054688 101.039062 289.949219 80.519531 273.703125 65.609375 C 237.617188 32.488281 181.351562 34.855469 148.277344 70.894531 C 115.199219 106.929688 117.648438 163.195312 153.734375 196.316406 C 167.511719 208.960938 184.578125 216.832031 203.089844 219.078125 C 208.046875 219.679688 213.101562 219.859375 218.125 219.621094 L 218.910156 235.347656 C 213.003906 235.636719 207.046875 235.421875 201.210938 234.710938 C 179.414062 232.070312 159.316406 222.804688 143.089844 207.914062 " fill-opacity="1" fill-rule="nonzero"/></g></g></g></svg>